<svg id="Calque_2" xmlns="http://www.w3.org/2000/svg" viewBox="0 0 789 283.12"><defs><style>.cls-3{stroke-width:0;fill:#333}</style></defs><g id="Calque_1-2"><path class="cls-3" d="M258.32 116.16c-7.16 0-13.43 2-18.77 5.99v-5.26h-13.18v84.61h13.18v-27.43c5.24 3.95 11.5 5.97 18.77 6.05 8.83 0 16.36-3.13 22.63-9.39 6.25-6.25 9.39-13.78 9.39-22.57s-3.13-16.36-9.39-22.62c-6.26-6.25-13.8-9.39-22.63-9.39zm13.35 45.31c-3.69 3.66-8.14 5.49-13.35 5.49s-9.63-1.83-13.3-5.49c-3.66-3.65-5.49-8.09-5.49-13.29s1.83-9.65 5.49-13.35c3.66-3.65 8.09-5.49 13.3-5.49s9.65 1.83 13.35 5.49c3.65 3.69 5.49 8.14 5.49 13.35s-1.83 9.63-5.49 13.29zm57.16-45.31c-8.79 0-16.31 3.13-22.57 9.39-6.3 6.25-9.44 13.78-9.44 22.57s3.15 16.36 9.44 22.62c6.25 6.25 13.78 9.39 22.57 9.39 6.18 0 11.85-1.65 17.02-4.97 5.05-3.17 9.27-8.14 12.67-14.93l-12.16-5.26c-2.22 4.34-4.79 7.37-7.69 9.11-3.06 1.93-6.34 2.89-9.84 2.89-4.9 0-9.14-1.65-12.72-4.97-3.28-3.43-5.17-6.69-5.66-9.79h50.22l.11-4.08c0-8.79-3.13-16.3-9.39-22.57-6.25-6.25-13.78-9.39-22.57-9.39zm-16.46 22.85c.98-1.89 2.81-3.92 5.49-6.1 3.24-2.38 6.9-3.56 10.98-3.56s7.69 1.19 10.97 3.56c2.75 2.15 4.6 4.19 5.54 6.1h-32.98.01zm105.76-17.32c-3.69-3.69-9.98-5.54-18.83-5.54s-16.3 3.13-22.57 9.39c-6.25 6.25-9.39 13.8-9.39 22.62s3.13 16.31 9.39 22.57 13.78 9.39 22.57 9.39 15.14-1.85 18.83-5.54v4.75h13.18v-62.44h-13.18v4.81-.02zm-5.49 39.76c-3.69 3.66-8.14 5.49-13.35 5.49s-9.63-1.83-13.29-5.49c-3.66-3.65-5.49-8.09-5.49-13.29s1.83-9.63 5.49-13.29 8.12-5.54 13.29-5.54 9.65 1.85 13.35 5.54c3.65 3.66 5.49 8.09 5.49 13.29s-1.83 9.63-5.49 13.29zm94.17-66.84c-3.06 1.93-6.34 2.89-9.84 2.89-5.21 0-9.63-1.83-13.3-5.49s-5.54-8.14-5.54-13.35 1.85-9.59 5.54-13.3c3.66-3.65 8.09-5.49 13.3-5.49 3.54 0 6.82.94 9.84 2.82 2.91 1.78 5.47 4.81 7.69 9.11l12.16-5.26c-3.39-6.75-7.62-11.7-12.67-14.87-5.17-3.32-10.83-4.97-17.02-4.97-8.79 0-16.32 3.13-22.63 9.39-6.25 6.25-9.39 13.78-9.39 22.57s3.13 16.36 9.39 22.62c6.3 6.25 13.84 9.39 22.63 9.39 6.18 0 11.85-1.65 17.02-4.97 5.05-3.17 9.27-8.14 12.67-14.93l-12.16-5.26c-2.22 4.34-4.79 7.37-7.69 9.11v-.02zM35.65 45.79c-8.79 0-16.3 3.13-22.57 9.39-6.3 6.25-9.44 13.78-9.44 22.57s3.15 16.36 9.44 22.62c6.26 6.25 13.78 9.39 22.57 9.39 6.18 0 11.85-1.65 17.03-4.97 5.05-3.17 9.27-8.14 12.67-14.93L53.19 84.6c-2.23 4.34-4.79 7.37-7.7 9.11-3.06 1.93-6.34 2.89-9.84 2.89-4.9 0-9.14-1.65-12.72-4.97-3.28-3.43-5.17-6.69-5.66-9.79h50.22l.11-4.08c0-8.79-3.13-16.3-9.39-22.57S44.43 45.8 35.64 45.8zM19.2 68.64c.98-1.89 2.8-3.92 5.49-6.1 3.24-2.38 6.9-3.56 10.97-3.56s7.7 1.19 10.98 3.56c2.75 2.15 4.6 4.19 5.54 6.1H19.19zm57.67-48.35h13.24v88.69H76.87zm53.94 25.5c-8.79 0-16.3 3.13-22.57 9.39-6.3 6.25-9.44 13.78-9.44 22.57s3.15 16.36 9.44 22.62c6.26 6.25 13.78 9.39 22.57 9.39 6.18 0 11.85-1.65 17.03-4.97 5.05-3.17 9.27-8.14 12.67-14.93l-12.16-5.26c-2.23 4.34-4.79 7.37-7.7 9.11-3.06 1.93-6.34 2.89-9.84 2.89-4.9 0-9.14-1.65-12.72-4.97-3.28-3.43-5.17-6.69-5.66-9.79h50.22l.11-4.08c0-8.79-3.13-16.3-9.39-22.57s-13.78-9.39-22.57-9.39zm-16.45 22.85c.98-1.89 2.8-3.92 5.49-6.1 3.24-2.38 6.9-3.56 10.97-3.56s7.7 1.19 10.98 3.56c2.75 2.15 4.6 4.19 5.54 6.1h-32.98.01zm104.5 15.95c-2.23 4.34-4.79 7.37-7.7 9.11-3.06 1.93-6.34 2.89-9.84 2.89-5.21 0-9.63-1.83-13.29-5.49-3.69-3.69-5.54-8.14-5.54-13.35s1.85-9.59 5.54-13.3c3.66-3.65 8.09-5.49 13.29-5.49 3.54 0 6.83.94 9.84 2.82 2.91 1.78 5.47 4.81 7.7 9.11l12.16-5.26c-3.39-6.75-7.62-11.7-12.67-14.87-5.17-3.32-10.84-4.97-17.03-4.97-8.79 0-16.32 3.13-22.62 9.39-6.26 6.25-9.39 13.78-9.39 22.57s3.13 16.36 9.39 22.62c6.3 6.25 13.84 9.39 22.62 9.39 6.18 0 11.85-1.65 17.03-4.97 5.05-3.17 9.27-8.14 12.67-14.93l-12.16-5.26v-.02zm45.35 24.37V95.78c-3.73 0-6.38-.78-7.92-2.32-1.5-1.54-2.26-3.43-2.26-5.66V59.69h10.18V46.51h-10.18V36.1h-13.18v51.69c0 5.81 2.06 10.78 6.16 14.93 4.15 4.15 9.88 6.22 17.19 6.22zm21.13-37.04c0-3.58 1.26-6.64 3.79-9.16 2.52-2.52 5.56-3.79 9.11-3.79h3.34V45.79h-3.34c-4.56.11-8.86 1.11-12.89 3v-2.26h-13.18v62.44h13.18V71.93h-.01zm51.63 37.84c8.79 0 16.3-3.13 22.57-9.39 6.26-6.25 9.39-13.8 9.39-22.62s-3.13-16.3-9.39-22.57c-6.25-6.25-13.78-9.39-22.57-9.39s-16.36 3.13-22.63 9.39c-6.25 6.25-9.39 13.78-9.39 22.57s3.13 16.36 9.39 22.62 13.8 9.39 22.63 9.39zm-13.3-45.31c3.66-3.65 8.09-5.49 13.3-5.49s9.63 1.83 13.29 5.49c3.65 3.66 5.49 8.09 5.49 13.3s-1.83 9.65-5.49 13.35c-3.66 3.66-8.09 5.49-13.29 5.49s-9.63-1.83-13.3-5.49-5.54-8.14-5.54-13.35 1.85-9.59 5.54-13.3zm67.75 7.47c0-3.58 1.26-6.64 3.79-9.16 2.52-2.52 5.58-3.79 9.16-3.79s6.58 1.26 9.11 3.79c2.52 2.52 3.79 5.58 3.79 9.16v37.04h13.18V71.92c0-7.2-2.56-13.35-7.69-18.44-5.09-5.12-11.22-7.69-18.38-7.69-4.56-.07-8.88 1.02-12.95 3.28v-2.54h-13.18v62.44h13.18V71.93h-.01zM447.3 40.7c2.23 0 4.13-.8 5.71-2.38s2.38-3.47 2.38-5.66-.79-4.13-2.38-5.71c-1.58-1.58-3.49-2.38-5.71-2.38s-4.08.8-5.66 2.38c-1.58 1.58-2.38 3.49-2.38 5.71s.79 4.08 2.38 5.66c1.58 1.58 3.47 2.38 5.66 2.38z"/><path class="cls-3" d="M478.64 116.42l-24.72 24.6V45.68h-13.19v133.3h13.19v-19.29l7.4-7.41 18.67 26.7h16.18l-25.34-36.2 26.52-26.35-18.71-.01z"/><path d="M228.1 273.4h8.68v-8.38h-6.1v-7.59l3.32-.05c1.39-.1 2.47-.36 3.25-.79.78-.43 1.36-1.14 1.74-2.13.38-.99.65-2.33.82-4.02h9.72v22.97h6.65v9.72H228.1v-9.72zm36.49 0c1.31-2.84 2.91-5.27 4.81-7.27 1.9-2 3.96-3.65 6.18-4.94v-.05h-16.57v-10.67h29.27v9.87c-2.35 1.79-4.3 3.82-5.85 6.1-1.56 2.28-2.75 4.8-3.6 7.57-.84 2.76-1.35 5.8-1.51 9.1h-15.08c.26-3.64 1.05-6.88 2.36-9.72zm36.99-7.84h12.9v7.04h-12.9v-7.04zm26.96 10.39c.41-1.77 1.22-3.23 2.41-4.39 1.19-1.16 3.01-2.3 5.46-3.42 1.92-.83 3.34-1.54 4.27-2.13.93-.59 1.54-1.19 1.84-1.79.3-.59.45-1.34.45-2.23 0-.69-.08-1.26-.25-1.71-.17-.45-.43-.78-.79-.99-.36-.21-.78-.32-1.24-.32-.53 0-.98.13-1.36.4-.38.26-.67.68-.87 1.24-.2.56-.3 1.27-.3 2.13 0 .27.02.6.07.99.05.4.09.86.12 1.39h-10.07c0-.43-.03-.93-.1-1.51s-.1-1.13-.1-1.66c0-2.38.46-4.45 1.39-6.2.93-1.75 2.43-3.14 4.51-4.17 2.08-1.02 4.78-1.54 8.09-1.54 2.98 0 5.49.46 7.54 1.36 2.05.91 3.58 2.14 4.59 3.7 1.01 1.56 1.51 3.42 1.51 5.61 0 1.82-.33 3.41-.99 4.76-.66 1.36-1.69 2.55-3.08 3.57-1.39 1.03-3.21 1.94-5.46 2.73-.6.26-1.03.49-1.31.67-.28.18-.46.35-.52.5-.07.15-.1.32-.1.52h12.35v9.67h-28.68c0-3.01.21-5.4.62-7.17zm31.56 0c.41-1.77 1.22-3.23 2.41-4.39 1.19-1.16 3.01-2.3 5.46-3.42 1.92-.83 3.34-1.54 4.27-2.13.93-.59 1.54-1.19 1.84-1.79.3-.59.45-1.34.45-2.23 0-.69-.08-1.26-.25-1.71-.17-.45-.43-.78-.79-.99-.36-.21-.78-.32-1.24-.32-.53 0-.98.13-1.36.4-.38.26-.67.68-.87 1.24-.2.56-.3 1.27-.3 2.13 0 .27.02.6.07.99.05.4.09.86.12 1.39h-10.07c0-.43-.03-.93-.1-1.51s-.1-1.13-.1-1.66c0-2.38.46-4.45 1.39-6.2.93-1.75 2.43-3.14 4.51-4.17 2.08-1.02 4.78-1.54 8.09-1.54 2.98 0 5.49.46 7.54 1.36 2.05.91 3.58 2.14 4.59 3.7 1.01 1.56 1.51 3.42 1.51 5.61 0 1.82-.33 3.41-.99 4.76-.66 1.36-1.69 2.55-3.08 3.57-1.39 1.03-3.21 1.94-5.46 2.73-.6.26-1.03.49-1.31.67-.28.18-.46.35-.52.5-.07.15-.1.32-.1.52h12.35v9.67h-28.68c0-3.01.21-5.4.62-7.17zm30.68-17.34h12.01l-.25 6.65h.1c.56-2.18 1.55-3.9 2.98-5.16s3.41-1.89 5.95-1.89c2.98 0 5.18.82 6.6 2.46 1.42 1.64 2.13 4.01 2.13 7.12v15.33h-12.01v-12.11c0-.6-.09-1.1-.27-1.51-.18-.41-.46-.72-.82-.92s-.83-.3-1.39-.3c-.63 0-1.17.12-1.61.37-.45.25-.79.65-1.04 1.22-.25.56-.37 1.26-.37 2.08v11.16h-12.01V258.6zm36 23.39c-1.54-1.01-2.7-2.47-3.5-4.39s-1.19-4.22-1.19-6.9.43-4.82 1.29-6.72c.86-1.9 2.08-3.34 3.67-4.32 1.59-.98 3.49-1.46 5.71-1.46 1.26 0 2.36.13 3.3.4s1.71.64 2.31 1.12a6.91 6.91 0 011.49 1.66h.1v-12.65h11.96v34.38h-11.96c.1-1.69.18-3.37.25-5.06h-.15c-.33 1.09-.81 2.03-1.44 2.83-.63.79-1.46 1.43-2.48 1.91-1.03.48-2.27.72-3.72.72-2.22 0-4.09-.5-5.63-1.51zm11.68-7.07c.46-.3.83-.76 1.09-1.39s.4-1.41.4-2.33v-1.74c-.03-.6-.17-1.12-.42-1.59-.25-.46-.6-.83-1.07-1.12s-.98-.42-1.54-.42c-.63 0-1.15.17-1.56.5-.41.33-.74.82-.99 1.46s-.37 1.48-.37 2.5.12 1.83.35 2.51c.23.68.56 1.19.99 1.54.43.35.96.52 1.59.52.56 0 1.08-.15 1.54-.45zm26.99-24.46h18.65l3.18 13.3h.15l3.18-13.3h16.42v32.65h-13.05l.15-18.21h-.1l-4.71 18.21h-8.48l-4.76-18.21h-.05l.15 18.21h-10.72v-32.65zm45 22.83c.56-.96 1.44-1.71 2.63-2.26 1.19-.55 2.73-.82 4.61-.82h7.74v-1.98c0-.5-.1-.93-.3-1.29s-.46-.64-.79-.82c-.33-.18-.78-.27-1.34-.27-.86 0-1.48.17-1.86.52-.38.35-.57.9-.57 1.66.03.27.05.58.05.94h-10.07c-.13-.6-.2-1.21-.2-1.84 0-1.89.46-3.49 1.39-4.81.93-1.32 2.36-2.34 4.32-3.05 1.95-.71 4.45-1.07 7.49-1.07s5.81.45 7.89 1.34c2.08.89 3.61 2.17 4.56 3.82s1.44 3.56 1.44 5.71v14.04h-12.01c.07-.89.11-1.63.12-2.21.02-.58.04-1.33.07-2.26h-.1c-.23.99-.64 1.85-1.22 2.58s-1.39 1.28-2.43 1.66c-1.04.38-2.31.57-3.79.57-2.02 0-3.66-.3-4.91-.89s-2.17-1.41-2.73-2.46c-.56-1.04-.84-2.19-.84-3.45s.28-2.41.84-3.37zm13.59 3.87c.4-.2.73-.5.99-.92.26-.41.4-.87.4-1.37v-.79h-2.98c-.43 0-.79.07-1.07.2s-.5.31-.64.55-.22.51-.22.84c0 .6.18 1.04.55 1.34.36.3.88.45 1.54.45.56 0 1.04-.1 1.44-.3zm15.53-18.56h12.01l-.3 6.75h.1c.36-1.49.84-2.75 1.44-3.8.6-1.04 1.39-1.85 2.38-2.43.99-.58 2.26-.87 3.82-.87 1.75 0 3.17.36 4.27 1.07 1.09.71 1.88 1.78 2.36 3.2.48 1.42.72 3.27.72 5.56 0 1.89-.08 4.05-.25 6.5h-9.92c.03-1.12.05-2.22.05-3.28s-.17-1.78-.5-2.26c-.33-.48-.84-.72-1.54-.72-.53 0-1 .17-1.41.5-.41.33-.72.86-.92 1.59s-.3 1.65-.3 2.78v9.92h-12.01v-24.51zm34.44 23.27c-2.05-1.09-3.58-2.59-4.59-4.49-1.01-1.9-1.51-4.06-1.51-6.47 0-2.58.55-4.81 1.64-6.7 1.09-1.88 2.7-3.36 4.81-4.42 2.12-1.06 4.68-1.59 7.69-1.59s5.55.46 7.52 1.39 3.42 2.24 4.34 3.94c.92 1.7 1.39 3.83 1.39 6.38h-10.12c0-.86-.09-1.55-.27-2.06-.18-.51-.46-.89-.84-1.14-.38-.25-.85-.37-1.41-.37-.6 0-1.1.16-1.51.47-.41.31-.74.8-.97 1.46-.23.66-.35 1.52-.35 2.58s.12 1.96.37 2.6c.25.65.57 1.12.97 1.44.4.31.88.47 1.44.47s1.04-.12 1.44-.37c.4-.25.69-.62.87-1.12.18-.5.29-1.16.32-1.98h10.12c0 2.55-.47 4.67-1.41 6.38s-2.42 3-4.44 3.89c-2.02.89-4.6 1.34-7.74 1.34s-5.69-.54-7.74-1.64zm23.22-33.14h12.11v10.22c0 1.36-.08 3.44-.25 6.25h.1c.07-.23.15-.48.25-.74.6-1.92 1.59-3.44 2.98-4.56 1.39-1.12 3.26-1.69 5.61-1.69 3.04 0 5.28.82 6.7 2.46 1.42 1.64 2.13 4.01 2.13 7.12v15.33h-12.01v-12.11c0-.63-.09-1.15-.27-1.56-.18-.41-.45-.71-.79-.89s-.82-.27-1.41-.27c-.66 0-1.22.13-1.66.4s-.79.67-1.02 1.22c-.23.54-.35 1.23-.35 2.06v11.16h-12.11v-34.38zm43.28 27.21c.41-1.77 1.22-3.23 2.41-4.39 1.19-1.16 3.01-2.3 5.46-3.42 1.92-.83 3.34-1.54 4.27-2.13.93-.59 1.54-1.19 1.84-1.79.3-.59.45-1.34.45-2.23 0-.69-.08-1.26-.25-1.71-.17-.45-.43-.78-.79-.99-.36-.21-.78-.32-1.24-.32-.53 0-.98.13-1.36.4-.38.26-.67.68-.87 1.24s-.3 1.27-.3 2.13c0 .27.03.6.07.99.05.4.09.86.12 1.39h-10.07c0-.43-.03-.93-.1-1.51s-.1-1.13-.1-1.66c0-2.38.46-4.45 1.39-6.2s2.43-3.14 4.52-4.17c2.08-1.02 4.78-1.54 8.09-1.54 2.98 0 5.49.46 7.54 1.36 2.05.91 3.58 2.14 4.59 3.7 1.01 1.56 1.51 3.42 1.51 5.61 0 1.82-.33 3.41-.99 4.76-.66 1.36-1.69 2.55-3.08 3.57-1.39 1.03-3.21 1.94-5.46 2.73-.59.26-1.03.49-1.31.67s-.46.35-.52.5c-.07.15-.1.32-.1.52h12.35v9.67H639.9c0-3.01.21-5.4.62-7.17zm36.64 5.61c-2.22-1.34-3.84-3.27-4.86-5.81-1.03-2.53-1.54-5.58-1.54-9.15s.54-6.59 1.61-9.05c1.07-2.46 2.74-4.33 4.99-5.61 2.25-1.27 5.04-1.91 8.38-1.91s6.18.64 8.43 1.91 3.92 3.14 5.01 5.61c1.09 2.46 1.64 5.48 1.64 9.05s-.52 6.62-1.56 9.15c-1.04 2.53-2.67 4.47-4.89 5.81-2.22 1.34-5.09 2.01-8.63 2.01s-6.37-.67-8.58-2.01zm10.02-8.36c.36-.43.64-1.17.82-2.21.18-1.04.27-2.47.27-4.29s-.09-3.13-.27-4.12c-.18-.99-.46-1.72-.84-2.18-.38-.46-.85-.69-1.41-.69-.53 0-.98.23-1.36.69-.38.46-.65 1.19-.82 2.18-.17.99-.25 2.37-.25 4.12s.07 3.25.22 4.29.41 1.78.77 2.21c.36.43.84.65 1.44.65s1.07-.21 1.44-.65zm16.45 2.75c.41-1.77 1.22-3.23 2.41-4.39 1.19-1.16 3.01-2.3 5.46-3.42 1.92-.83 3.34-1.54 4.27-2.13.93-.59 1.54-1.19 1.84-1.79.3-.59.45-1.34.45-2.23 0-.69-.08-1.26-.25-1.71-.17-.45-.43-.78-.79-.99-.36-.21-.78-.32-1.24-.32-.53 0-.98.13-1.36.4-.38.26-.67.68-.87 1.24s-.3 1.27-.3 2.13c0 .27.03.6.07.99.05.4.09.86.12 1.39h-10.07c0-.43-.03-.93-.1-1.51s-.1-1.13-.1-1.66c0-2.38.46-4.45 1.39-6.2s2.43-3.14 4.52-4.17c2.08-1.02 4.78-1.54 8.09-1.54 2.98 0 5.49.46 7.54 1.36 2.05.91 3.58 2.14 4.59 3.7 1.01 1.56 1.51 3.42 1.51 5.61 0 1.82-.33 3.41-.99 4.76-.66 1.36-1.69 2.55-3.08 3.57-1.39 1.03-3.21 1.94-5.46 2.73-.59.26-1.03.49-1.31.67s-.46.35-.52.5c-.07.15-.1.32-.1.52h12.35v9.67h-28.68c0-3.01.21-5.4.62-7.17zm44.23 2.11h-14.14v-9.53l14.09-18.06h12.85v17.96h3.67v9.62h-3.67v5.06h-12.8v-5.06zm0-9.62v-6.9l-5.41 6.8v.1h5.41z" fill="#e51d45" stroke-width="0"/><path class="cls-3" d="M590.49 216.43c1.09-.15 2.06-.41 2.75-.86-2.44.23-4.75-2.26-7.02-3.98-.28-.2-.54-.34-.81-.41a4.978 4.978 0 00-3.52-.16c-.96-1.58-1.7-3.28-2.25-5.03.01-.29-.04-.55-.19-.75-.02-.02-.04-.03-.05-.05-1.92-7-.75-14.96 2.49-21.34 2.1-4.26 5.22-7.74 8.96-10.31H577.9c.02.67.43 1.47.81 2.09-.41.67-.81 1.36-1.18 2.06-.88-.03-1.84.07-2.14.65-.35.65.17 1.57.74 2.3-.29.72-.56 1.43-.82 2.16-.04-.01-.06-.01-.06-.01v.16c-.05.15-.1.31-.15.47-.7.13-1.33.38-1.51.87-.2.59.21 1.26.75 1.84-.27 1.15-.49 2.3-.67 3.46-.49.22-.88.52-.96.93-.01.06-.02.12-.02.18 0 .43.31.88.73 1.26-.1 1.3-.12 2.59-.08 3.89-.32.25-.55.54-.56.88-.02.44.28.84.71 1.17.06.64.12 1.28.22 1.91.1.64.22 1.26.35 1.9-.33.33-.55.7-.51 1.07.06.48.51.85 1.06 1.12.31 1.05.68 2.09 1.1 3.1-.39.48-.67 1-.51 1.43.18.58.91.86 1.66.99.38.71.8 1.39 1.24 2.06-.1.05-.16.09-.16.09l.16.15c-.31.6-.49 1.2-.24 1.62.19.31.56.47 1 .54a4.936 4.936 0 001.6 5.81c3.87 2.94 8.15 2.96 10.39 7.1.08-1.31-.51-2.99-1.38-4.61 2.24.64 4.51 1.52 6.4 2.95-.52-1.72-2.99-5.53-5.36-8.69zM744.55 45.91c-10-11.03-26.09-14.31-40.31-11.59-4.76.96-9.43 2.28-14.33 2.21-1.73.02-3.44-.06-5.16-.21-.03-.41-.16-.78-.42-1-.8-.65-2.28-.03-3.34.55h-.02c-.13-.14-.26-.28-.39-.41.24-.96.82-3.68-.28-4.38-.83-.51-2.15.19-3.11.89.08-1.17.11-3.51-.97-3.97-.95-.4-2.21.61-3.06 1.46-.01-.01-.02-.01-.03-.02-.2-1.2-.7-3.26-1.79-3.47-.8-.14-1.59.61-2.21 1.43-.18-.08-.35-.16-.52-.23-1.63-.69-3.32-1.28-5.05-1.8-.39-1.12-1.04-2.44-1.94-2.51-.78-.06-1.45.7-1.97 1.54-1.15-.23-2.31-.41-3.47-.55-.58-1.1-1.52-2.53-2.5-2.43-.87.08-1.44 1.14-1.8 2.18-.46-.01-.93 0-1.39.02-.73-.93-2.31-2.7-3.43-2.31-.88.3-1.18 1.62-1.27 2.77-.85-.69-2.98-2.24-4.04-1.55-.75.48-.76 1.76-.6 2.85-1.1-.58-3-1.39-3.82-.65-.58.51-.5 1.53-.24 2.49-6.34-.34-12.68-.36-19 .33-1.41.19-2.9.41-4.38.7l.37-2.38c.05-.02.11-.02.16-.05l5.19-2.42c.82-.37 1.17-1.34.79-2.15-.37-.82-1.34-1.16-2.15-.79l-3.38 1.57.68-4.28a1.62 1.62 0 00-1.35-1.86c-.89-.13-1.72.46-1.86 1.35l-1.77 11.23-1.84-2.87c-.48-.76-1.48-.98-2.24-.49-.75.48-.97 1.48-.48 2.24l1.63 2.55c-3.56 1.34-6.71 3.42-8.63 6.86-.14.28-.27.56-.38.86-2.49.54-4.96 1.2-6.8 1.93.03-.15.07-.29.09-.45.25-2.64-.93-5.18-2.37-7.32-2.93-6.02 5.01-11.27 9.39-14.11 4.32-2.65 8.95-4.78 13.68-6.63 7.09-2.66 14.47-4.95 22.05-5.58 2.52-.23 5.02.16 7.52.64 4.97 1.01 9.87 2.45 14.77 3.81 9.81 2.7 19.73 5.45 29.94 6 5.11.35 10.22-.3 15.16-1.58 4.98-1.02 10.09-1.36 15.16-1.25 12.58.45 25.69 2.82 36.37 9.82 2.38 1.58 4.3 3.78 6.24 5.86 1.58 1.46 3.43 2.99 5.23 4.16 5.57 3.7 11.84 6.27 18.3 8.01-6.45-1.76-12.7-4.36-18.25-8.07-1.81-1.17-3.64-2.7-5.21-4.17-1.94-2.09-3.86-4.31-6.24-5.89-10.68-7.05-23.82-9.47-36.43-9.97-5.09-.13-10.22.2-15.23 1.2-4.93 1.27-9.99 1.9-15.08 1.53-10.17-.6-20.07-3.35-29.83-6.09-4.9-1.37-9.8-2.82-14.8-3.86-2.49-.49-5.07-.9-7.65-.68-7.66.62-15.08 2.89-22.24 5.55-4.76 1.84-9.43 3.96-13.81 6.63-4.71 3.04-12.85 8.47-9.67 15.02 1.32 2.02 2.52 4.44 2.26 6.91-.04.31-.11.6-.17.89-.92.43-1.59.88-1.92 1.35-1.87 2.72-14.3 5.57-17.43 6.24-.46.1-.87.42-1.06.88-.61 1.37-1.64 4.38 0 5.92 1.79 1.68 5.27 3.55 6.47 4.17.27.14.58.19.87.16 2.91-.36 18.98-2.31 21.65-1.05 1.11.52 2.75.45 4.41.03-.56 3.63-.05 7.68 2.76 10.12-1.85-2.63-1.62-6.07-.46-8.95.46 3.15 1.85 6.19 4.64 7.74-2.47-2.3-2.9-5.95-2.23-9.11 1.12 3.22 3.24 6.22 6.55 7.15-2.82-1.61-4.09-4.88-4.24-8.01 1.72 2.79 4.28 5.13 7.56 5.42-2.73-.94-4.5-3.39-5.38-6.06.4-.04.83-.09 1.26-.16 2.03 1.51 4.43 2.42 6.95 2.04-1.93-.18-3.59-1.11-4.92-2.43.87-.2 1.75-.47 2.61-.82 1.32.23 2.67.18 3.99-.26a7.19 7.19 0 01-2.71-.31c1.37-.69 2.66-1.59 3.72-2.79l.24-.27c4.6-1.42 8.94-3.96 13.3-7.35 9.14-7.23 15.28-7.5 25.92-3.31 5.84 2.36 10.81 8.55 12.2 14.32 1.72 6.73-1.84 13.46-6.72 18.48.27.27.53.55.8.85 3.16 3.61 4.51 8.28 5.05 13.25.4-.33.82-.67 1.22-1.02.71.15 1.37.13 1.76-.25.37-.37.41-.99.3-1.63.44-.42.88-.87 1.3-1.32 1.05.26 2.25.37 2.75-.24.51-.63.2-1.7-.23-2.63a46.5 46.5 0 002.35-3.22c1.08.11 3.56.24 4.07-.85.46-1.03-.78-2.47-1.63-3.31.36-.73.71-1.46 1.02-2.21.63-.09 3.85-.66 4.05-2.04.16-1.09-1.35-2.1-2.42-2.66.17-.66.32-1.31.45-1.97.42-.19 3.58-1.69 3.38-3.13-.15-1.01-1.66-1.55-2.82-1.83.01-.59.01-1.17-.01-1.76l.02.05s3.15-2.45 2.56-3.9c-.39-.95-2.02-1.1-3.22-1.08-.07-.3-.13-.61-.21-.9-.04-.15-.08-.29-.12-.43.3-.37 2.52-3.08 1.72-4.3-.58-.86-2.2-.69-3.38-.42-.17-.4-.34-.8-.52-1.19.41-.73 1.85-3.39.93-4.38-.69-.76-2.24-.35-3.36.09-.2-.31-.4-.63-.62-.93.24-.61.71-1.92.74-3 1.7.14 3.42.22 5.13.19 4.9.05 9.64-1.29 14.38-2.27 14.15-2.74 30.15.45 40.16 11.39 7.05 9.34 25.2 7.32 37.1 4.86-11.92 2.39-30.02 4.36-37-4.95zm-138.22-11.9c-.37-.14-.8-.06-1.09.23-.99.97-3 2.52-5.42 3.11-.17.04-.34.07-.5.11.05-.12.1-.24.16-.36 1.84-3.31 4.9-5.32 8.35-6.61l.62.96-2.12 2.56zm8.97 4.72c.11-.07.23-.16.34-.24 0 .08.01.16.01.24-.12 0-.23.01-.35 0zm17.68-8.91c-.42.29-.83.56-1.22.86-1.08-.5-2.45-.95-3.13-.35-.33.29-.46.76-.46 1.27s.11 1.04.26 1.55c-.49.38-.99.75-1.47 1.1-1.03-.73-2.78-1.76-3.69-1.14-.93.64-.66 2.47-.35 3.68-.75.39-1.5.74-2.27 1.02-.35-.38-1.36-1.39-2.37-1.96.56-.84.99-1.76 1.2-2.77-.47.98-1.16 1.79-1.96 2.45-.34-.1-.67-.1-.95.04-.39.18-.63.59-.77 1.07-1.16.59-2.43.97-3.71 1.15 2.54-1.83 4.58-4.4 4.71-7.54-.99 3.37-4.28 5.41-7.53 6.16a1.1 1.1 0 00-.32-.48l3.93-4.75c.3-.37.5-.82.58-1.29l.15-.97c1.55-.3 3.1-.53 4.56-.74 4.93-.58 9.89-.69 14.85-.55-.36.54-.28 1.38-.04 2.19zm-67.3 58.48c-.45.3-.61.91-.61 1.58 0 .46.07.96.16 1.4-.5.35-1.01.72-1.5 1.1-1.03-.48-2.77-1.15-3.49-.44-.73.71-.21 2.27.24 3.31-.42.43-.84.87-1.24 1.31-1.09-.25-3.05-.58-3.61.29-.55.85.27 2.26.95 3.18-.44.69-.87 1.39-1.26 2.12-1.14.03-2.83.22-3.15 1.12-.31.86.59 1.9 1.4 2.62-.49 1.24-.91 2.5-1.25 3.76-1 .33-2.09.86-2.18 1.63-.08.73.63 1.38 1.4 1.89-.13.74-.24 1.47-.33 2.21-.01.08-.01.16-.02.24-.82.48-1.58 1.13-1.53 1.82.05.62.64 1.08 1.33 1.42 0 .49.02.99.05 1.47-.69.6-1.28 1.31-1.13 1.95.13.6.77.96 1.49 1.19.06.32.12.64.19.96.05.23.11.46.17.71-.59.69-1.06 1.48-.81 2.1.23.59.98.84 1.77.94.2.48.4.97.64 1.43-.48.82-.85 1.75-.47 2.33.37.59 1.27.67 2.16.59.24.36.5.73.78 1.08-.33.93-.52 2-.01 2.5.49.5 1.42.37 2.28.09.37.38.77.75 1.17 1.1-.04.9.07 1.82.64 2.14.49.29 1.17.11 1.81-.24.95.65 1.93 1.22 2.94 1.72.19.34.43.6.75.68.21.05.43.03.65-.04.04.02.08.03.12.05l.77-12.07c.1-1.61.74-3.07 1.73-4.2-.04-.03-.07-.07-.11-.1-3.87-3.96-2.36-11.02-.08-15.68a7.63 7.63 0 01-.09-1.79l1.3-18.57c.01-.19.03-.38.07-.56-.34.16-.69.34-1.02.52-.94-.64-2.29-1.35-3.04-.86zm124.26 46.54c-.16-.61-.88-.95-1.64-1.14 0-.28-.01-.55-.01-.83.72-.78 1.9-2.24 1.44-3.11-.27-.54-1.01-.73-1.78-.76-.17-1.05-.4-2.09-.71-3.11.49-.94 1.03-2.25.49-2.9-.35-.43-1.03-.48-1.73-.38-.39-.84-.85-1.65-1.35-2.45.25-1.02.41-2.34-.23-2.82-.19-.14-.43-.2-.7-.2-.35 0-.75.11-1.14.27-.53-.61-1.11-1.19-1.73-1.75-.02-1.03-.2-2.25-.92-2.55-.52-.21-1.16.07-1.74.49-.78-.51-1.58-1-2.45-1.45-.21-.7-.51-1.4-.96-1.74 1.23 3.62 1.44 7.73 1.44 11.45v24.72c0 5.37-.33 10.81-2.19 15.48.76.13 3.27.47 3.79-.54.34-.66-.16-1.56-.74-2.3.53-.51 1.05-1.05 1.54-1.6 1.04 0 2.91-.12 3.24-1.03.23-.63-.23-1.35-.8-1.97.46-.65.91-1.29 1.33-1.96 1.05-.17 2.51-.54 2.7-1.39.13-.6-.33-1.21-.92-1.74.35-.68.69-1.36.99-2.07 1-.32 2.23-.88 2.3-1.68.05-.58-.44-1.1-1.05-1.52.21-.65.41-1.3.6-1.96.94-.47 2.1-1.22 2.05-2.04-.04-.59-.62-1.03-1.29-1.36.09-.5.17-1.01.23-1.5.88-.63 2.12-1.68 1.9-2.56zm-70.32-59.93h-17.14l-1.05 14.78h-4.32l1.05-14.78h-17.14l-1.05 14.78h-3.27l-1.31 18.57h3.27l-1.57 21.71h-3.14l-1.18 18.57h3.01l-1.18 17.92h17.14l1.18-17.92h4.32l-1.18 17.92h17.13l1.18-17.92h3.4l1.31-18.57h-3.4l1.57-21.71h3.27l1.31-18.57h-3.27l1.05-14.78h.01zm-21.06 55.07h-4.32l1.57-21.71h4.32l-1.57 21.71z"/><path class="cls-3" d="M659.13 107.23h-3.79c-6.67 0-9.82 3.14-11.12 8.5V97.16c0-2.35.26-3.27 1.97-3.27h.39c1.7 0 1.97.92 1.97 3.27v6.14h19.49v-8.5c0-15.96-3.66-20.54-18.31-20.54h-7.85c-14.39 0-18.31 4.58-18.31 20.54v51.8c0 15.96 3.66 20.54 18.31 20.54h9.03c14.52 0 18.31-4.58 18.31-20.54v-24.73c0-10.33-1.97-14.65-10.07-14.65h-.02zm-10.59 37.01c0 2.35-.26 3.27-1.97 3.27h-.39c-1.7 0-1.97-.92-1.97-3.27v-14.39c0-2.35.26-3.27 1.97-3.27h.39c1.7 0 1.97.92 1.97 3.27v14.39z"/></g></svg>