<svg width="337" height="442" viewBox="0 0 337 442" fill="none" xmlns="http://www.w3.org/2000/svg">
<path d="M258.161 412.109C260.445 421.206 267.278 428.622 275.22 433.586C286.457 440.613 300.765 443.305 313.307 438.994C325.851 434.678 335.922 422.717 336.295 409.449C336.664 396.174 326.007 383.022 312.776 382.235C308.099 381.957 303.29 383.08 298.774 381.83C285.633 378.199 285.279 359.863 278.236 348.178C266.842 329.282 239.625 330.239 219.643 320.919C216.746 319.566 213.743 317.716 212.702 314.685C211.313 310.649 213.923 306.472 215.825 302.645C222.814 288.563 220.5 270.935 211.983 257.748C203.465 244.561 189.476 235.561 174.52 230.811C165.051 227.808 155.133 226.359 145.762 223.062C140.835 221.325 135.893 218.936 132.699 214.801C125.989 206.103 129.291 193.622 132.888 183.221C134.14 179.594 135.559 175.743 138.647 173.464C143.442 169.935 150.119 171.565 155.792 173.343C197.021 186.257 238.244 199.17 279.475 212.079C283.042 213.196 286.783 214.325 290.467 213.672C297.421 212.438 301.69 205.507 304.798 199.155C317.306 173.549 325.693 145.937 329.545 117.703C310.246 110.54 290.947 103.377 271.65 96.2086C287.639 93.6323 301.371 80.388 304.541 64.4874C307.712 48.5814 300.107 31.0984 286.328 22.6119C269.992 12.5489 245.566 17.2739 235.905 33.8891C226.666 49.7715 232.257 70.5084 242.694 85.5998C202.603 76.8932 162.506 68.1845 122.415 59.4779C126.159 45.9019 129.91 32.3227 133.654 18.7467C108.174 12.71 82.6898 6.67112 57.2106 0.634377C55.2033 0.160432 52.9128 -0.264651 51.235 0.942066C49.9866 1.83718 49.4454 3.40387 48.9768 4.86363C33.2886 53.6427 17.595 102.42 1.90466 151.204C0.642933 155.123 -0.622344 159.348 0.602724 163.27C2.21957 168.448 7.57645 171.375 12.5591 173.504C28.9626 180.515 46.5757 184.695 64.3825 185.8C69.4864 186.116 74.956 186.3 79.0622 189.346C85.9657 194.469 85.6236 204.621 86.8805 213.142C88.9287 227.003 97.2827 239.794 109.136 247.223C122.991 255.906 140.539 257.216 154.204 266.194C166.885 274.52 175.017 289.378 175.221 304.572C175.357 314.838 172.134 324.832 170.863 335.02C169.592 345.208 170.712 356.612 177.929 363.896C195.112 381.223 229.807 362.029 247.139 379.212C255.351 387.354 255.751 400.297 255.621 411.881" fill="#FBBC0C"/>
</svg>
