<svg width="444" height="396" viewBox="0 0 444 396" fill="none" xmlns="http://www.w3.org/2000/svg">
<path d="M62.8671 299.876C65.9691 298.588 68.8947 296.91 71.5239 294.824C76.5977 290.8 76.4292 288.726 81.77 280.256C85.9968 273.546 89.3777 266.013 89.5377 258.091C89.6977 250.169 86.0961 241.837 79.1532 238.007C69.6342 232.756 57.6033 237.317 48.7963 243.705C24.1048 261.605 11.6431 291.842 4.4253 321.43C0.263522 338.49 -2.43432 357.05 4.62313 373.118C11.6806 389.185 31.9117 400.517 47.4634 392.309C59.5021 385.956 64.0314 371.455 69.2685 358.913C76.8064 340.857 87.9623 324.309 101.895 310.538C103.45 308.998 105.523 308.032 107.713 307.961C111.838 307.825 113.292 310.935 114.28 313.833C117.592 323.552 118.212 334.119 122.344 343.521C126.477 352.922 135.974 361.347 146.063 359.317C150.182 358.488 153.78 356.039 157.048 353.402C188.464 328.017 201.011 280.342 238.87 266.227C263.454 257.064 290.721 265.518 316.951 264.988C343.825 264.444 370.393 253.924 390.343 235.92C405.665 222.093 417.18 198.431 405.517 181.441C397.76 170.143 382.857 166.542 372.06 158.092C369.03 155.718 366.182 152.714 365.435 148.944C364.287 143.153 368.545 137.452 373.733 134.614C378.929 131.779 384.951 131.022 390.69 129.578C410.053 124.707 427.071 111.173 436.151 93.4177C445.235 75.6547 446.227 53.9762 438.809 35.4824C432.347 19.3701 418.903 5.4222 401.958 1.50167C383.438 -2.78332 361.425 7.26415 356.782 26.3112C355.995 29.5279 356.764 33.0007 359.037 35.4017C364.717 41.4021 373.939 35.4516 381.793 36.2482C391.066 37.1883 396.637 48.3539 394.448 57.4038C392.259 66.4537 384.611 73.215 376.492 77.801C365.491 84.0112 353.014 87.3617 342.289 94.0191C331.557 100.678 322.34 112.285 324.001 124.775C324.919 131.685 328.977 137.694 332.22 143.862C338.081 155.005 341.507 168.05 338.434 180.266C335.362 192.482 324.485 203.238 311.869 203.229C295.846 203.226 284.338 187.552 269.025 182.857C247.478 176.252 225.569 193.011 212.921 211.667C200.273 230.322 191.67 252.519 173.91 266.407C171.686 268.143 169.232 269.775 166.435 270.177C159.291 271.197 153.754 264.139 150.764 257.588C147.767 251.038 144.863 243.359 138.112 240.833C127.385 236.824 117.929 248.62 111.801 258.295C100.222 276.582 85.9273 293.153 69.5248 307.292C64.3819 311.723 56.8446 315.898 51.0587 313.927C48.8473 313.174 47.8115 310.751 48.8096 308.643C50.4825 305.101 53.1168 302.535 56.9643 301.77C57.9892 301.564 59.7741 301.127 60.7374 300.725L62.8575 299.845L62.8671 299.876Z" fill="#009873"/>
</svg>
