<svg width="61" height="60" viewBox="0 0 61 60" fill="none" xmlns="http://www.w3.org/2000/svg">
<rect x="1" y="0.5" width="59" height="59" rx="9.5" stroke="#EEF1F4"/>
<path d="M30.5 27C28.8426 27 27.5 28.3431 27.5 30C27.5 31.6573 28.8431 33 30.5 33C32.1573 33 33.5 31.6569 33.5 30C33.5 28.3427 32.1569 27 30.5 27ZM30.5 25C33.2604 25 35.5 27.2371 35.5 30C35.5 32.7605 33.2629 35 30.5 35C27.7395 35 25.5 32.7629 25.5 30C25.5 27.2395 27.7371 25 30.5 25ZM37 24.7491C37 25.4393 36.4392 25.9992 35.75 25.9992C35.0599 25.9992 34.5 25.4384 34.5 24.7491C34.5 24.0599 35.0607 23.5 35.75 23.5C36.4383 23.4991 37 24.0599 37 24.7491ZM30.5 22C28.0255 22 27.6222 22.0065 26.4713 22.0578C25.6872 22.0946 25.1616 22.2001 24.6732 22.3897C24.2392 22.558 23.9261 22.759 23.5925 23.0925C23.2577 23.4274 23.0571 23.7396 22.8894 24.1738C22.6994 24.6633 22.594 25.1881 22.5578 25.9711C22.5061 27.0752 22.5 27.4611 22.5 30C22.5 32.4745 22.5066 32.8778 22.5578 34.0286C22.5946 34.8124 22.7002 35.3388 22.8894 35.826C23.0581 36.2606 23.2595 36.5744 23.5915 36.9064C23.9277 37.2421 24.2408 37.4434 24.6709 37.6094C25.1652 37.8005 25.6905 37.9061 26.4711 37.9422C27.5752 37.9939 27.9611 38 30.5 38C32.9745 38 33.3778 37.9934 34.5286 37.9422C35.3107 37.9055 35.8375 37.7996 36.326 37.6106C36.7594 37.4423 37.0742 37.2402 37.4064 36.9085C37.7426 36.5718 37.9435 36.2594 38.1097 35.8283C38.3003 35.3358 38.4061 34.8098 38.4422 34.0289C38.4939 32.9248 38.5 32.5389 38.5 30C38.5 27.5255 38.4934 27.1222 38.4422 25.9714C38.4054 25.1891 38.2995 24.6615 38.1103 24.1732C37.9424 23.7404 37.7407 23.4263 37.4074 23.0925C37.072 22.7571 36.7606 22.5569 36.3261 22.3894C35.837 22.1995 35.3114 22.094 34.5288 22.0578C33.4248 22.006 33.0389 22 30.5 22ZM30.5 20C33.2166 20 33.5558 20.01 34.6225 20.06C35.6866 20.1092 36.4125 20.2775 37.05 20.525C37.7091 20.7792 38.2658 21.1225 38.8216 21.6783C39.3766 22.2342 39.72 22.7925 39.975 23.45C40.2216 24.0867 40.39 24.8133 40.44 25.8775C40.4875 26.9442 40.5 27.2833 40.5 30C40.5 32.7167 40.49 33.0558 40.44 34.1225C40.3908 35.1867 40.2216 35.9125 39.975 36.55C39.7208 37.2092 39.3766 37.7658 38.8216 38.3217C38.2658 38.8767 37.7066 39.22 37.05 39.475C36.4125 39.7217 35.6866 39.89 34.6225 39.94C33.5558 39.9875 33.2166 40 30.5 40C27.7833 40 27.4442 39.99 26.3775 39.94C25.3133 39.8908 24.5883 39.7217 23.95 39.475C23.2917 39.2208 22.7342 38.8767 22.1783 38.3217C21.6225 37.7658 21.28 37.2067 21.025 36.55C20.7775 35.9125 20.61 35.1867 20.56 34.1225C20.5125 33.0558 20.5 32.7167 20.5 30C20.5 27.2833 20.51 26.9442 20.56 25.8775C20.6092 24.8125 20.7775 24.0875 21.025 23.45C21.2792 22.7917 21.6225 22.2342 22.1783 21.6783C22.7342 21.1225 23.2925 20.78 23.95 20.525C24.5875 20.2775 25.3125 20.11 26.3775 20.06C27.4442 20.0125 27.7833 20 30.5 20Z" fill="white"/>
</svg>
