<svg width="62" height="60" viewBox="0 0 62 60" fill="none" xmlns="http://www.w3.org/2000/svg">
<rect x="1" y="0.5" width="60" height="59" rx="9.5" stroke="#EEF1F4"/>
<path d="M24.5001 23.0004C24.4997 23.8147 24.0056 24.5475 23.2509 24.8532C22.4962 25.1589 21.6314 24.9765 21.0645 24.392C20.4975 23.8075 20.3415 22.9376 20.6701 22.1926C20.9986 21.4475 21.7461 20.976 22.5601 21.0004C23.6411 21.0329 24.5005 21.9189 24.5001 23.0004ZM24.5601 26.4804H20.56V39.0004H24.5601V26.4804ZM30.8801 26.4804H26.9V39.0004H30.8401V32.4304C30.8401 28.7704 35.6101 28.4304 35.6101 32.4304V39.0004H39.5601V31.0704C39.5601 24.9004 32.5001 25.1304 30.8401 28.1604L30.8801 26.4804Z" fill="white"/>
</svg>
