<svg xmlns="http://www.w3.org/2000/svg" xmlns:xlink="http://www.w3.org/1999/xlink" x="0px" y="0px"
	 width="704.148px" height="216.301px" viewBox="0 0 704.148 216.301" enable-background="new 0 0 704.148 216.301"
	 xml:space="preserve">
	<path fill-rule="evenodd" clip-rule="evenodd" fill="#006B5A" d="M12.064,152.021l22.348,0.544l0.607-11.708
		c5.32,1.78,8.441,9.278,27.396,13.237c29.354,6.147,54.164-8.451,66.878-32.926c4.263-8.2,3.844-12.043,5.875-14.557
		c3.362,4.817,1.079,17.887,19.782,34.601c22.443,20.066,56.49,18.726,80.367-0.041c7.729-6.085,17.008-20.485,20.422-34.089
		c0.555,0.786,0.188-0.01,0.984,1.687c1.738,3.707,1.854,6.367,4.933,11.771c2.576,4.503,4.954,7.541,7.844,11.08
		c31.167,38.1,77.634,18.243,80.901,12.589c1.927-5.697,0.785-15.981,0.533-22.747c-4.22,1.843-10.703,9.384-24.411,12.253
		c-9.635,2.032-26.046,1.09-29.124-6.66c2.283-3.205,6.021-5.446,8.965-7.959c1.654-1.424,2.408-2.493,4.031-3.833
		c9.52-7.917,54.018-49.535,59.275-50.897c-0.555,14.809,4.408,25.951,13.761,30.664c10.001,5.027,23.553,6.514,30.968,13.237
		c3.246,2.933,7.143,9.3,5.57,16.274c-0.984,4.378-6.723,10.012-10.922,11.206c-6.085,1.738-13.123-0.565-17.123-3.436
		c-4.504-3.246-6.168-8.65-7.048-15.688h-20.223c0.21,12.923,3.33,18.913,9.771,26.056c5.152,5.718,11.74,12.064,23.521,12.567
		c34.916,1.444,39.66-23.742,43.263-27.899l0.136,25.155l21.94-0.042c-0.241-20.945,0.042-41.765-0.021-62.5
		c-0.115-37.722,34.727-42.927,50.803-25.344c6.859,7.509,7.006,12.253,7.006,24.569c-0.011,21.092-0.063,42.205,0,63.286
		l21.887-0.011c0.043-6.87-1.078-44.152,0.21-46.98c2.618,4.21,6.503,30.455,31.962,42.488c9.111,4.304,19.794,6.838,31.188,6.168
		c13.949-0.817,18.956-4.545,29.365-8.608v-24.108c-5.32,1.896-9.906,9.321-23.176,11.876c-9.604,1.864-25.187,0.481-28.412-6.241
		l51.075-46.08c6.042-4.838,11.362-10.054,17.563-14.557c0.933-1.194-1.435-1.026,1.644-0.942l0.199,86.399l20.38,0.502
		c-0.733-16.201-0.063-43.272-0.083-61.621l0.063-7.142c0.335-2.011,0.502-1.645,0.67-2.053c1.916-25.009,26.401-24.275,27.993-26.81
		c0.933-1.508,0.472-15.541,0.095-18.002c-18.453-0.66-24.381,9.311-26.842,10.19l-2.45,0.147c-1.278-2.744-0.87-4.566-1.204-8.231
		l-19.553-0.314l-0.021,19.94c-8.975-7.436-11.656-13.656-26.213-19.625c-22.746-9.279-51.692-4.797-68.406,15.698
		c-3.163,3.896-6.828,8.221-9.436,13.415c-1.917,3.792-5.488,14.274-6.881,16.379c-2.43-14.641-2.011-26.359-15.438-38.456
		c-17.51-15.75-46.435-13.09-59.965-1.801c-2.807,2.346-2.263,2.891-5.719,4.147c-0.115-3.561,0.566-8.148-0.293-10.682
		l-19.939-0.283l-0.314,73.507c-0.146-2.681-4.461-9.708-5.97-12.127c-11.185-17.929-45.063-13.363-45.2-31.564
		c-0.115-16.191,19.543-19.479,26.161-7.017c4.157,7.833-2.073,6.304,21.741,6.074c-0.439-18.348-13.51-30.371-31.889-31.188
		c-11.07-0.492-16.809,2.335-23.721,7.603c-8.012,6.137-8.65,9.604-12.075,16.379l-1.31,2.105c-3.748-4.074-1.508-4.64-11.488-12.431
		c-4.355-3.393-8.754-6.399-14.734-8.964c-25.071-10.766-51.567-5.048-69.748,13.53c-7.226,7.362-12.734,16.809-16.567,30.224
		c-5.676-14.683-8.378-22.076-20.829-32.905c-9.437-8.211-23.7-14.159-40.247-14.201c-28.297-0.042-45.849,15.165-56.72,37.995
		c-1.508,3.184-2.387,7.247-3.938,10.159c-3.477-10.473-7.791-20.275-13.991-27.145c-6.169-6.828-13.018-13.049-23.752-17.28
		c-15.541-6.158-34.821-5.802-49.714,2.849c-4.45,2.576-7.928,6.598-12.053,8.608L34.957,0H12.064V152.021z M568.148,110.779
		c-8.232-17.427-2.273-37.639,9.311-46.478c10.953-8.378,33.02-15.709,47.011-3.54C623.736,64.375,573.438,109.69,568.148,110.779z
		 M281.691,111.554c-3.582-10.389-5.906-13.3-2.838-27.041c3.613-16.18,19.154-28.245,33.941-29.177
		c8.839-0.544,20.107,1.173,24.736,6.221c-0.9,3.561-10.002,10.337-13.572,13.615C317.822,80.807,283.932,110.695,281.691,111.554z
		 M68.595,56.343c22.81-3.331,41.366,14.745,44.403,33.722c3.688,23.176-13.928,41.838-33.826,44.361
		c-23.752,2.995-42.854-13.509-44.791-34.371C32.172,76.303,48.11,59.338,68.595,56.343z M190.266,57.222
		c22.475-3.351,41.681,13.866,44.194,32.842c3.247,24.317-13.091,41.262-33.366,44.425C149.223,142.553,138.447,64.93,190.266,57.222
		z"/>
	<polygon fill="#00705F" points="0,215.735 0,184.003 9.635,184.003 15.311,205.64 20.934,184.003 30.579,184.003 30.579,215.735
		24.642,215.735 24.621,190.748 18.368,215.735 12.189,215.735 5.969,190.748 5.947,215.735 "/>
	<path fill="#00705F" d="M53.85,203.147l-4.42-11.75l-4.272,11.75H53.85z M65.59,215.735h-6.923l-2.744-7.227H43.209l-2.639,7.227
		h-6.797l12.316-31.732h6.796L65.59,215.735z"/>
	<polygon fill="#00705F" points="72.857,215.735 72.857,189.365 63.463,189.365 63.463,184.003 88.639,184.003 88.639,189.365
		79.277,189.365 79.277,215.735 "/>
	<path fill="#00705F" d="M101.521,181.113l3.017-6.473h6.786l-5.991,6.473H101.521z M92.787,215.735v-31.732h23.5v5.362h-17.07v7.038
		h15.865v5.361H99.217v8.608h17.678v5.362H92.787z"/>
	<path fill="#00705F" d="M128.781,197.43h4.744c3.068,0,4.984-0.126,5.749-0.398c0.765-0.251,1.372-0.712,1.791-1.341
		c0.439-0.628,0.649-1.424,0.649-2.388c0-1.067-0.283-1.927-0.859-2.597c-0.565-0.649-1.361-1.068-2.408-1.236
		c-0.523-0.063-2.074-0.104-4.671-0.104h-4.995V197.43z M122.351,215.735v-31.732h13.499c3.394,0,5.854,0.294,7.395,0.859
		c1.539,0.565,2.764,1.57,3.686,3.037c0.922,1.466,1.393,3.121,1.393,4.984c0,2.389-0.701,4.357-2.094,5.907
		s-3.477,2.534-6.252,2.932c1.382,0.817,2.513,1.697,3.414,2.66c0.9,0.964,2.115,2.682,3.623,5.153l3.875,6.199h-7.656l-4.597-6.933
		c-1.645-2.451-2.775-4.011-3.394-4.65c-0.607-0.639-1.235-1.089-1.927-1.319c-0.681-0.23-1.759-0.355-3.235-0.355h-1.299v13.258
		H122.351z"/>
	<rect x="154.135" y="184.003" fill="#00705F" width="6.431" height="31.732"/>
	<polygon fill="#00705F" points="166.66,215.735 166.66,184.003 190.16,184.003 190.16,189.365 173.09,189.365 173.09,196.403
		188.957,196.403 188.957,201.765 173.09,201.765 173.09,210.373 190.779,210.373 190.779,215.735 "/>
	<polygon fill="#00705F" points="196.402,215.735 196.402,184.275 202.832,184.275 202.832,210.373 218.74,210.373 218.74,215.735
		"/>
	<path fill="#00705F" d="M241.235,189.365v9.038h3.487c2.524,0,4.199-0.178,5.049-0.503c0.857-0.324,1.518-0.849,2-1.561
		c0.471-0.712,0.723-1.528,0.723-2.472c0-1.173-0.336-2.115-1.016-2.869c-0.682-0.754-1.529-1.235-2.566-1.424
		c-0.765-0.146-2.293-0.21-4.598-0.21H241.235z M234.816,215.735v-31.732h10.263c3.896,0,6.431,0.147,7.603,0.472
		c1.822,0.481,3.352,1.519,4.566,3.11c1.236,1.592,1.844,3.645,1.844,6.179c0,1.948-0.356,3.582-1.048,4.912
		c-0.712,1.33-1.612,2.377-2.702,3.131c-1.078,0.754-2.188,1.257-3.309,1.509c-1.529,0.293-3.729,0.45-6.641,0.45h-4.157v11.97
		H234.816z"/>
	<path fill="#00705F" d="M269.648,199.838c0,3.603,0.837,6.325,2.492,8.189c1.654,1.854,3.77,2.786,6.325,2.786
		c2.565,0,4.671-0.922,6.304-2.765c1.645-1.844,2.462-4.608,2.462-8.295c0-3.645-0.796-6.367-2.398-8.147
		c-1.592-1.801-3.708-2.681-6.367-2.681c-2.64,0-4.776,0.9-6.389,2.702C270.454,193.45,269.648,196.193,269.648,199.838
		 M263.039,200.048c0-3.226,0.492-5.949,1.456-8.148c0.712-1.612,1.707-3.068,2.954-4.356c1.246-1.277,2.617-2.241,4.104-2.869
		c1.969-0.827,4.252-1.257,6.839-1.257c4.682,0,8.42,1.466,11.236,4.356c2.807,2.911,4.211,6.954,4.211,12.138
		c0,5.132-1.404,9.143-4.189,12.044c-2.785,2.9-6.514,4.346-11.164,4.346c-4.723,0-8.482-1.435-11.268-4.314
		C264.433,209.096,263.039,205.116,263.039,200.048z"/>
	<path fill="#00705F" d="M298.835,184.003h6.431v17.196c0,2.724,0.072,4.493,0.24,5.3c0.272,1.298,0.911,2.346,1.928,3.131
		c1.025,0.785,2.429,1.184,4.188,1.184c1.802,0,3.163-0.377,4.084-1.11c0.901-0.754,1.456-1.654,1.634-2.744
		c0.188-1.089,0.293-2.89,0.293-5.403v-17.553h6.42v16.684c0,3.801-0.178,6.503-0.514,8.074c-0.355,1.57-0.984,2.911-1.916,4
		c-0.922,1.079-2.168,1.928-3.718,2.576c-1.55,0.649-3.581,0.964-6.085,0.964c-3.025,0-5.309-0.335-6.859-1.047
		c-1.57-0.691-2.807-1.613-3.707-2.724c-0.911-1.131-1.508-2.304-1.78-3.528c-0.429-1.813-0.639-4.515-0.639-8.054V184.003z"/>
	<path fill="#00705F" d="M337.27,197.43h4.744c3.068,0,4.984-0.126,5.749-0.398c0.765-0.251,1.372-0.712,1.791-1.341
		c0.44-0.628,0.649-1.424,0.649-2.388c0-1.067-0.283-1.927-0.859-2.597c-0.564-0.649-1.361-1.068-2.398-1.236
		c-0.533-0.063-2.084-0.104-4.681-0.104h-4.995V197.43z M330.84,215.735v-31.732h13.498c3.394,0,5.854,0.294,7.395,0.859
		c1.539,0.565,2.764,1.57,3.686,3.037c0.922,1.466,1.393,3.121,1.393,4.984c0,2.389-0.69,4.357-2.094,5.907
		c-1.393,1.55-3.477,2.534-6.252,2.932c1.382,0.817,2.514,1.697,3.414,2.66c0.9,0.964,2.115,2.682,3.623,5.153l3.875,6.199h-7.655
		l-4.598-6.933c-1.644-2.451-2.775-4.011-3.394-4.65c-0.607-0.639-1.235-1.089-1.927-1.319c-0.681-0.23-1.759-0.355-3.235-0.355
		h-1.299v13.258H330.84z"/>
	<path fill="#00705F" d="M381.578,201.859v8.514h5.938c2.314,0,3.78-0.073,4.399-0.188c0.952-0.188,1.727-0.607,2.324-1.277
		c0.597-0.691,0.9-1.57,0.9-2.702c0-0.963-0.22-1.759-0.691-2.43c-0.461-0.67-1.131-1.151-2-1.466
		c-0.879-0.293-2.765-0.45-5.697-0.45H381.578z M381.578,189.281v7.311h4.2c2.481,0,4.032-0.042,4.64-0.115
		c1.1-0.126,1.969-0.503,2.598-1.132c0.617-0.617,0.932-1.455,0.932-2.461c0-0.984-0.283-1.78-0.807-2.388
		c-0.545-0.617-1.352-0.984-2.408-1.109c-0.639-0.084-2.473-0.105-5.467-0.105H381.578z M375.148,184.003h12.693
		c2.523,0,4.398,0.105,5.623,0.314c1.246,0.21,2.346,0.649,3.32,1.299c0.974,0.67,1.78,1.55,2.43,2.639
		c0.648,1.11,0.984,2.347,0.984,3.708c0,1.487-0.398,2.849-1.205,4.084c-0.795,1.235-1.874,2.157-3.246,2.786
		c1.928,0.565,3.404,1.528,4.451,2.89c1.026,1.362,1.55,2.954,1.55,4.797c0,1.445-0.335,2.849-1.005,4.21
		c-0.671,1.361-1.592,2.45-2.766,3.288c-1.151,0.796-2.586,1.299-4.293,1.509c-1.068,0.104-3.645,0.167-7.729,0.209h-10.809V184.003z
		"/>
	<polygon fill="#00705F" points="407.152,215.735 407.152,184.003 430.653,184.003 430.653,189.365 413.583,189.365 413.583,196.403
		429.449,196.403 429.449,201.765 413.583,201.765 413.583,210.373 431.271,210.373 431.271,215.735 "/>
	<path fill="#00705F" d="M453.557,203.147l-4.408-11.75l-4.283,11.75H453.557z M465.297,215.735h-6.912l-2.744-7.227h-12.724
		l-2.64,7.227h-6.797l12.326-31.732h6.787L465.297,215.735z"/>
	<path fill="#00705F" d="M468.721,184.003h6.431v17.196c0,2.724,0.073,4.493,0.241,5.3c0.271,1.298,0.911,2.346,1.927,3.131
		c1.026,0.785,2.43,1.184,4.188,1.184c1.802,0,3.163-0.377,4.074-1.11c0.911-0.754,1.467-1.654,1.645-2.744
		c0.188-1.089,0.283-2.89,0.283-5.403v-17.553h6.43v16.684c0,3.801-0.178,6.503-0.514,8.074c-0.355,1.57-0.984,2.911-1.916,4
		c-0.932,1.079-2.168,1.928-3.718,2.576c-1.55,0.649-3.581,0.964-6.085,0.964c-3.026,0-5.309-0.335-6.869-1.047
		c-1.561-0.691-2.797-1.613-3.697-2.724c-0.911-1.131-1.508-2.304-1.791-3.528c-0.419-1.813-0.629-4.515-0.629-8.054V184.003z"/>
	<polygon fill="#00705F" points="497.51,215.735 508.465,199.188 498.537,184.003 506.014,184.003 512.256,193.45 518.519,184.003
		526.006,184.003 516.047,199.188 526.98,215.735 519.293,215.735 512.256,204.99 505.219,215.735 "/>
	<rect x="529.535" y="201.199" fill="#00705F" width="11.961" height="6.074"/>
	<path fill="#00705F" d="M561.875,203.147l-4.398-11.75l-4.294,11.75H561.875z M573.625,215.735h-6.922l-2.733-7.227h-12.735
		l-2.639,7.227h-6.786l12.315-31.732h6.787L573.625,215.735z"/>
	<path fill="#00705F" d="M583.47,197.43h4.744c3.068,0,4.985-0.126,5.749-0.398c0.765-0.251,1.361-0.712,1.801-1.341
		c0.43-0.628,0.65-1.424,0.65-2.388c0-1.067-0.293-1.927-0.859-2.597c-0.565-0.649-1.371-1.068-2.408-1.236
		c-0.523-0.063-2.084-0.104-4.671-0.104h-5.006V197.43z M577.039,215.735v-31.732h13.5c3.383,0,5.854,0.294,7.393,0.859
		c1.54,0.565,2.775,1.57,3.697,3.037c0.922,1.466,1.383,3.121,1.383,4.984c0,2.389-0.691,4.357-2.095,5.907
		c-1.382,1.55-3.478,2.534-6.253,2.932c1.383,0.817,2.524,1.697,3.414,2.66c0.901,0.964,2.116,2.682,3.635,5.153l3.875,6.199h-7.666
		l-4.587-6.933c-1.655-2.451-2.786-4.011-3.394-4.65c-0.607-0.639-1.246-1.089-1.927-1.319c-0.691-0.23-1.759-0.355-3.247-0.355
		h-1.298v13.258H577.039z"/>
	<polygon fill="#00705F" points="616.186,215.735 616.186,189.365 606.792,189.365 606.792,184.003 631.957,184.003 631.957,189.365
		622.616,189.365 622.616,215.735 "/>
	<path fill="#00705F" d="M634.43,205.451l6.252-0.628c0.387,2.094,1.131,3.623,2.272,4.607c1.151,0.984,2.691,1.467,4.629,1.467
		c2.052,0,3.612-0.44,4.649-1.299c1.047-0.88,1.571-1.896,1.571-3.059c0-0.754-0.23-1.403-0.66-1.927
		c-0.439-0.523-1.204-0.984-2.294-1.361c-0.754-0.272-2.45-0.733-5.109-1.393c-3.414-0.849-5.823-1.906-7.205-3.152
		c-1.938-1.76-2.901-3.886-2.901-6.409c0-1.613,0.45-3.142,1.361-4.545c0.921-1.403,2.23-2.482,3.948-3.226
		c1.728-0.733,3.791-1.11,6.23-1.11c3.97,0,6.965,0.88,8.955,2.649c2.01,1.771,3.058,4.116,3.162,7.069l-6.42,0.209
		c-0.271-1.634-0.858-2.807-1.748-3.519c-0.901-0.723-2.242-1.089-4.021-1.089c-1.854,0-3.299,0.387-4.336,1.151
		c-0.682,0.503-1.016,1.152-1.016,1.99c0,0.754,0.313,1.382,0.953,1.927c0.795,0.681,2.764,1.393,5.864,2.137
		c3.12,0.732,5.403,1.487,6.891,2.283c1.497,0.774,2.66,1.863,3.498,3.226c0.849,1.361,1.278,3.036,1.278,5.048
		c0,1.822-0.514,3.519-1.52,5.11c-1.016,1.592-2.439,2.765-4.283,3.54c-1.843,0.774-4.146,1.151-6.912,1.151
		c-4,0-7.09-0.921-9.236-2.765C636.137,211.693,634.858,208.991,634.43,205.451"/>
</svg>
