<svg width="212" height="171" viewBox="0 0 212 171" fill="none" xmlns="http://www.w3.org/2000/svg">
<g clip-path="url(#clip0_474_477)">
<path d="M114.097 12.4207L110.913 10.4494L107.338 0H104.771L101.091 10.4426L97.8362 12.4495C91.5685 15.4919 87.2349 21.9209 87.2349 29.3482V57.41H124.763V29.3482C124.763 21.8955 120.4 15.4496 114.097 12.419V12.4207ZM103.948 12.7512L104.698 10.6206L106.024 6.85611L107.313 10.6223L108.039 12.7461L111.452 14.8597L111.264 14.9767L108.707 16.5648L108.046 16.975L106.676 20.8649L105.997 22.7921L105.326 20.8904L103.948 16.9767L103.301 16.575L100.73 14.9784L100.536 14.858L103.946 12.7546L103.948 12.7512ZM111.692 33.6449L95.2569 48.2657L94.2307 49.1792L103.396 25.8142L104.773 29.7194H107.228L108.614 25.7905L111.23 32.4619L111.694 33.6449H111.692ZM90.6964 48.7097V29.3499C90.6964 25.1583 92.3882 21.3548 95.1249 18.5869C95.4585 18.2496 95.809 17.9276 96.1748 17.6208C96.3577 17.4666 96.5457 17.3174 96.7354 17.1716C96.881 17.0598 97.0284 16.9513 97.1791 16.8445L101.091 19.2734L101.636 20.8209L90.6964 48.7097ZM119.657 53.9488H94.08L113.04 37.0806L119.657 53.9488ZM121.303 48.664L114.451 31.1974L110.371 20.7971L110.908 19.2734L114.82 16.8445C118.739 19.6192 121.303 24.1905 121.303 29.3499V48.664Z" fill="white"/>
<path d="M13.6904 87.1475L22.4221 105.353H19.0029L11.0723 88.3611H12.3085L4.37789 105.353H0.957031L9.6887 87.1475H13.6904ZM4.37789 105.353L4.34402 101.797L16.0935 93.2629V96.8375L4.37789 105.351V105.353Z" fill="white"/>
<path d="M90.6233 87.1445L99.355 105.35H95.9358L88.0052 88.3581H89.2414L81.3108 105.35H77.8916L86.6233 87.1445H90.625H90.6233ZM81.3108 105.35L81.2769 101.794L93.0264 93.2599V96.8346L81.3108 105.348V105.35Z" fill="white"/>
<path d="M31.4199 97.5376C31.4199 98.6223 31.6384 99.5597 32.0753 100.353C32.5123 101.146 33.1388 101.756 33.9551 102.185C34.7714 102.614 35.7451 102.829 36.8781 102.829C38.011 102.829 39.0034 102.616 39.8129 102.185C40.6207 101.756 41.2439 101.146 41.6808 100.353C42.1178 99.5597 42.3362 98.6223 42.3362 97.5376V87.1475H45.5369V97.6579C45.5369 99.2596 45.1728 100.665 44.4446 101.87C43.7164 103.075 42.7071 104.014 41.4133 104.685C40.1194 105.356 38.6071 105.692 36.8781 105.692C35.149 105.692 33.6554 105.356 32.3548 104.685C31.0525 104.014 30.0381 103.075 29.3115 101.87C28.5833 100.665 28.2192 99.2596 28.2192 97.6579V87.1475H31.4199V97.5376Z" fill="white"/>
<path d="M62.4414 87.1477C64.5108 87.1477 66.3263 87.5291 67.886 88.2884C69.4457 89.0494 70.6616 90.1139 71.5355 91.48C72.4076 92.8478 72.8445 94.4377 72.8445 96.2496C72.8445 98.0615 72.4076 99.6514 71.5355 101.019C70.6616 102.387 69.4457 103.452 67.886 104.211C66.3246 104.972 64.5108 105.352 62.4414 105.352H54.2178V87.146H62.4414V87.1477ZM57.4202 104.238L55.6505 102.54H62.6599C64.0502 102.54 65.2678 102.277 66.311 101.751C67.3525 101.226 68.162 100.489 68.7361 99.5429C69.3102 98.5954 69.5964 97.5005 69.5964 96.253C69.5964 95.0055 69.3102 93.8902 68.7361 92.9512C68.162 92.0122 67.3525 91.28 66.311 90.7546C65.2678 90.2291 64.0502 89.9664 62.6599 89.9664H55.6505L57.4202 88.2681V104.241V104.238Z" fill="white"/>
<path d="M124.602 98.1447C124.439 99.6346 123.918 100.948 123.037 102.091C122.155 103.231 121.003 104.118 119.581 104.748C118.158 105.38 116.532 105.696 114.707 105.696C112.669 105.696 110.883 105.299 109.347 104.506C107.811 103.713 106.613 102.609 105.757 101.192C104.9 99.777 104.471 98.1295 104.471 96.2514C104.471 94.3734 104.9 92.7276 105.757 91.3106C106.613 89.8953 107.811 88.7902 109.347 87.997C110.883 87.2037 112.669 86.8071 114.707 86.8071C116.534 86.8071 118.158 87.1224 119.581 87.7546C121.003 88.3851 122.156 89.2682 123.037 90.4004C123.918 91.5327 124.439 92.8514 124.602 94.3582H121.376C121.198 93.387 120.813 92.553 120.224 91.8581C119.633 91.1615 118.869 90.6242 117.931 90.2428C116.993 89.8631 115.911 89.6733 114.681 89.6733C113.259 89.6733 112.026 89.9394 110.983 90.4733C109.939 91.0072 109.135 91.7683 108.569 92.7564C108.004 93.7446 107.721 94.909 107.721 96.2514C107.721 97.5938 108.004 98.76 108.569 99.7464C109.135 100.735 109.939 101.494 110.983 102.03C112.026 102.563 113.259 102.83 114.681 102.83C115.911 102.83 116.993 102.643 117.931 102.272C118.869 101.899 119.633 101.362 120.224 100.658C120.813 99.9549 121.198 99.1176 121.376 98.1447H124.602Z" fill="white"/>
<path d="M132.387 87.1479H135.587V105.354H132.387V87.1479Z" fill="white"/>
<path d="M148.443 96.2513L147.158 104.384L145.63 102.589H159.746V105.357H143.884L145.339 96.253L143.884 87.1494H159.625V89.9173H145.63L147.158 88.1223L148.443 96.2547V96.2513ZM159.043 94.9157V97.587H146.333V94.9157H159.043Z" fill="white"/>
<path d="M170.902 97.5381C170.902 98.6228 171.12 99.5601 171.557 100.353C171.994 101.147 172.619 101.757 173.437 102.186C174.253 102.614 175.229 102.83 176.36 102.83C177.491 102.83 178.485 102.616 179.295 102.186C180.103 101.757 180.726 101.147 181.163 100.353C181.6 99.5601 181.818 98.6228 181.818 97.5381V87.1479H185.019V97.6584C185.019 99.2601 184.656 100.665 183.928 101.87C183.2 103.075 182.191 104.014 180.897 104.686C179.603 105.357 178.091 105.693 176.362 105.693C174.633 105.693 173.139 105.357 171.838 104.686C170.538 104.014 169.522 103.075 168.795 101.87C168.067 100.665 167.705 99.2601 167.705 97.6584V87.1479H170.905V97.5381H170.902Z" fill="white"/>
<path d="M202.554 96.7855V94.9397L211.043 105.354H207.089L200.54 97.0991H201.947L195.373 105.354H191.517L200.03 94.9888V96.7363L192.123 87.1479H196.101L202.091 94.6481H200.637L206.579 87.1479H210.435L202.552 96.7855H202.554Z" fill="white"/>
<path d="M66.5209 120.213V120.922H58.5547L59.1915 120.285V130.834H58.3989V120.213H66.5209ZM58.7681 125.169H66.3092V125.878H58.7681V125.169Z" fill="white"/>
<path d="M72.5326 125.524L71.6553 130.763L71.1456 130.125H79.4928V130.834H70.8628L71.7536 125.524L70.8628 120.213H79.4217V120.922H71.1456L71.6553 120.298L72.5326 125.524ZM79.1389 125.169V125.878H72.0787V125.169H79.1389Z" fill="white"/>
<path d="M83.6538 127.407H84.4464C84.5226 127.983 84.741 128.488 85.1051 128.922C85.4675 129.356 85.9485 129.692 86.548 129.927C87.1475 130.163 87.8334 130.282 88.6073 130.282C89.7758 130.282 90.7106 130.066 91.4083 129.637C92.106 129.209 92.4549 128.62 92.4549 127.875C92.4549 127.327 92.2263 126.902 91.769 126.6C91.3118 126.298 90.526 126.086 89.4134 125.963L87.6166 125.764C86.3058 125.622 85.3744 125.32 84.8223 124.858C84.2702 124.395 83.9942 123.8 83.9942 123.075C83.9942 122.451 84.1771 121.913 84.5463 121.459C84.9138 121.007 85.4218 120.658 86.0738 120.412C86.7241 120.166 87.4794 120.044 88.3363 120.044C89.1932 120.044 90.0095 120.181 90.692 120.454C91.3745 120.727 91.9181 121.11 92.3194 121.6C92.7208 122.091 92.9392 122.663 92.9782 123.314H92.1856C92.1298 122.795 91.9299 122.346 91.5912 121.968C91.2525 121.59 90.8038 121.295 90.2483 121.083C89.6911 120.871 89.051 120.764 88.3245 120.764C87.2491 120.764 86.3905 120.968 85.7504 121.373C85.1085 121.78 84.7884 122.346 84.7884 123.073C84.7884 123.639 85.0171 124.075 85.4743 124.375C85.9316 124.676 86.6936 124.89 87.7588 125.012L89.471 125.21C90.377 125.314 91.1069 125.47 91.664 125.678C92.2212 125.885 92.6226 126.166 92.8732 126.52C93.1238 126.875 93.2475 127.315 93.2475 127.844C93.2475 128.505 93.0544 129.071 92.6666 129.543C92.2805 130.015 91.7369 130.376 91.0408 130.626C90.3414 130.876 89.5269 131 88.5937 131C87.6606 131 86.8444 130.849 86.1178 130.548C85.3913 130.246 84.8105 129.824 84.3786 129.28C83.9451 128.737 83.7029 128.112 83.6555 127.403L83.6538 127.407Z" fill="white"/>
<path d="M96.3735 120.213H106.616V120.922H96.3735V120.213ZM101.098 120.639H101.891V130.834H101.098V120.639Z" fill="white"/>
<path d="M111.002 120.213H111.795V130.834H111.002V120.213Z" fill="white"/>
<path d="M122.18 130.58H121.685L126.75 120.215H127.643L122.337 130.836H121.516L116.21 120.215H117.087L122.18 130.58Z" fill="white"/>
<path d="M135.353 120.213L140.715 130.834H139.822L134.616 120.412H135.309L130.088 130.834H129.197L134.559 120.213H135.351H135.353ZM130.069 130.841V129.825L137.155 124.23V125.246L130.069 130.841Z" fill="white"/>
<path d="M145.907 120.213V130.48L145.553 130.125H153.604V130.834H145.114V120.213H145.907Z" fill="white"/>
</g>
<defs>
<clipPath id="clip0_474_477">
<rect x="0.957031" width="210.086" height="171" rx="20" fill="white"/>
</clipPath>
</defs>
</svg>
