<svg width="61" height="60" viewBox="0 0 61 60" fill="none" xmlns="http://www.w3.org/2000/svg">
<rect x="1" y="0.5" width="59" height="59" rx="9.5" stroke="#FBBC0C"/>
<g clip-path="url(#clip0_512_443)">
<path fill-rule="evenodd" clip-rule="evenodd" d="M34.5 20C35.6 20 36.5 20.9 36.5 22C36.5 23.42 37.5 24.65 38.9 24.94C39.98 25.16 40.68 26.22 40.46 27.3C40.24 28.38 39.18 29.08 38.1 28.86C37.55 28.75 37.01 28.57 36.5 28.32V34C36.5 37.31 33.81 40 30.5 40C27.19 40 24.5 37.31 24.5 34C24.5 31.26 26.35 28.87 29 28.19C30.07 27.93 31.15 28.59 31.41 29.67C31.66 30.72 31.04 31.78 29.99 32.07C28.92 32.35 28.28 33.45 28.57 34.52C28.8 35.39 29.59 36 30.49 36.01C31.59 36.01 32.49 35.11 32.49 34.01V22C32.49 20.9 33.39 20 34.49 20H34.5Z" fill="#F8F7F1"/>
</g>
<defs>
<clipPath id="clip0_512_443">
<rect width="24" height="24" fill="white" transform="translate(20.5 18)"/>
</clipPath>
</defs>
</svg>
